<?xml version="1.0" standalone="no"?>
<!DOCTYPE svg PUBLIC "-//W3C//DTD SVG 20010904//EN"
 "http://www.w3.org/TR/2001/REC-SVG-20010904/DTD/svg10.dtd">
<svg version="1.0" xmlns="http://www.w3.org/2000/svg"
 width="400.000000pt" height="400.000000pt" viewBox="0 0 400.000000 400.000000"
 preserveAspectRatio="xMidYMid meet">
<metadata>
Created by potrace 1.11, written by Peter Selinger 2001-2013
</metadata>
<g transform="translate(0.000000,400.000000) scale(0.100000,-0.100000)"
fill="#000000" stroke="none">
<path d="M2990 3605 c-166 -21 -343 -74 -412 -122 -42 -28 -83 -78 -98 -118
-10 -25 -12 -26 -57 -18 -72 12 -300 6 -428 -12 -129 -18 -181 -34 -318 -100
l-98 -47 -62 59 c-79 76 -116 99 -252 155 -205 85 -348 122 -445 116 l-54 -3
-29 -90 c-42 -133 -57 -216 -57 -318 0 -160 47 -288 153 -420 l55 -67 -26 -63
c-17 -42 -27 -92 -32 -157 -9 -117 -25 -154 -104 -245 -99 -113 -124 -165
-135 -276 -10 -99 -4 -154 21 -204 11 -20 17 -69 20 -150 3 -94 9 -130 26
-167 31 -71 69 -116 100 -120 29 -3 34 -11 95 -148 36 -81 92 -169 190 -297
101 -133 227 -216 477 -316 135 -53 232 -77 315 -77 78 -1 234 -16 360 -35 80
-13 118 -25 190 -61 166 -83 243 -68 269 53 10 43 25 53 101 69 36 8 84 23
106 35 66 33 220 151 280 213 73 77 118 111 130 99 7 -7 -7 -25 -40 -52 -120
-100 -188 -315 -128 -402 l24 -34 -44 -47 c-37 -41 -43 -53 -43 -92 0 -48 15
-71 57 -87 36 -13 124 -11 153 5 14 7 54 30 88 50 75 42 90 44 98 12 10 -43
49 -69 107 -74 51 -4 56 -2 95 34 46 45 64 103 42 138 -7 12 -18 28 -23 37
-11 17 17 70 79 147 18 24 41 68 50 97 14 49 14 63 -1 147 -21 124 -53 248
-71 276 -14 21 -13 26 16 65 17 23 42 77 55 120 22 67 25 97 25 216 0 122 -3
148 -28 232 -16 52 -40 115 -54 140 -14 24 -36 76 -48 114 -12 39 -42 107 -66
153 -39 73 -45 93 -51 165 -9 119 -67 291 -124 362 -24 31 -74 99 -110 151
l-67 97 35 63 c94 175 148 393 124 505 -19 86 -87 255 -119 292 -13 14 -31 17
-116 16 -56 -1 -144 -7 -196 -14z"/>
</g>
</svg>
